# xmcd
#
# Track frame offsets:
#	150
#	22194
#	43499
#	61432
#	79347
#	95578
#	109621
#	129038
#	149808
#	171675
#	190276
#	205289
#	226742
#
# Disc length: 3279 seconds
# Revision: 0
# Processed by: cddbd v1.5.2PL0 Copyright (c) Steve Scherf et al.
# Submitted via: dBpowerAMP V12.0
#
DISCID=c50ccd0d
DTITLE=Kathy Kallick - Cut To The Chase
DYEAR=2014
DGENRE=Country
TTITLE0=Tryin' So Hard to Get You
TTITLE1=Feet On the Ground
TTITLE2=Cut to the Chase
TTITLE3=Once Upon
TTITLE4=The Rustler's Girl
TTITLE5=Time Traveler's Wife
TTITLE6=Persephone's Wife
TTITLE7=Franco's Spain
TTITLE8=Not as Lonesome as Me
TTITLE9=The Night the Boat Capsized
TTITLE10=Same Ol' Song
TTITLE11=When
TTITLE12=Ellie
EXTD=
EXTT0=
EXTT1=
EXTT2=
EXTT3=
EXTT4=
EXTT5=
EXTT6=
EXTT7=
EXTT8=
EXTT9=
EXTT10=
EXTT11=
EXTT12=
PLAYORDER=
